<svg width="256" height="101" viewBox="0 0 256 101" fill="none" xmlns="http://www.w3.org/2000/svg">
<g filter="url(#filter0_b_0_1)">
<line x1="30" y1="3" y2="3" stroke="white" stroke-width="6"/>
</g>
<g filter="url(#filter1_b_0_1)">
<line x1="30" y1="97" y2="97" stroke="white" stroke-width="6"/>
</g>
<g filter="url(#filter2_b_0_1)">
<line x1="3" y1="100" x2="3" stroke="white" stroke-width="6"/>
</g>
<g filter="url(#filter3_b_0_1)">
<line y1="-3" x2="30" y2="-3" transform="matrix(-1 0 0.00712118 -0.999975 256 94)" stroke="#A00707" stroke-width="6"/>
</g>
<g filter="url(#filter4_b_0_1)">
<line y1="-3" x2="30.5094" y2="-3" transform="matrix(-1 0 0.00712118 -0.999975 255.509 0)" stroke="#A00707" stroke-width="6"/>
</g>
<g filter="url(#filter5_b_0_1)">
<line y1="-3" x2="100" y2="-3" transform="matrix(0 -1 0.999977 -0.00681168 256 100)" stroke="#A00707" stroke-width="6"/>
</g>
<g filter="url(#filter6_b_0_1)">
<path d="M33.6089 29.5455H41.0578V58.6932C41.0443 61.3651 40.4775 63.6658 39.3575 65.5955C38.2375 67.5117 36.6721 68.9893 34.6615 70.0284C32.6643 71.054 30.3366 71.5668 27.6782 71.5668C25.2492 71.5668 23.0631 71.1349 21.1199 70.2713C19.1903 69.3942 17.6586 68.0987 16.5251 66.3849C15.3916 64.6712 14.8248 62.5391 14.8248 59.9886H22.2939C22.3074 61.1087 22.5503 62.0735 23.0226 62.8832C23.5084 63.6928 24.1764 64.3136 25.0265 64.7454C25.8767 65.1772 26.855 65.3931 27.9616 65.3931C29.1626 65.3931 30.1814 65.1435 31.018 64.6442C31.8547 64.1314 32.4889 63.3757 32.9207 62.3771C33.366 61.3786 33.5954 60.1506 33.6089 58.6932V29.5455ZM62.4429 71.6072C59.4067 71.6072 56.7753 70.9393 54.5487 69.6033C52.3222 68.2674 50.5949 66.3984 49.3669 63.9964C48.1524 61.5945 47.5452 58.7876 47.5452 55.576C47.5452 52.3643 48.1524 49.5508 49.3669 47.1353C50.5949 44.7198 52.3222 42.8441 54.5487 41.5082C56.7753 40.1722 59.4067 39.5043 62.4429 39.5043C65.4791 39.5043 68.1105 40.1722 70.3371 41.5082C72.5637 42.8441 74.2842 44.7198 75.4987 47.1353C76.7267 49.5508 77.3406 52.3643 77.3406 55.576C77.3406 58.7876 76.7267 61.5945 75.4987 63.9964C74.2842 66.3984 72.5637 68.2674 70.3371 69.6033C68.1105 70.9393 65.4791 71.6072 62.4429 71.6072ZM62.4834 65.7372C64.1297 65.7372 65.5061 65.2852 66.6127 64.381C67.7192 63.4634 68.5423 62.2354 69.0821 60.6971C69.6354 59.1587 69.912 57.445 69.912 55.5558C69.912 53.6531 69.6354 51.9325 69.0821 50.3942C68.5423 48.8423 67.7192 47.6076 66.6127 46.69C65.5061 45.7724 64.1297 45.3136 62.4834 45.3136C60.7966 45.3136 59.3932 45.7724 58.2732 46.69C57.1666 47.6076 56.3367 48.8423 55.7835 50.3942C55.2437 51.9325 54.9738 53.6531 54.9738 55.5558C54.9738 57.445 55.2437 59.1587 55.7835 60.6971C56.3367 62.2354 57.1666 63.4634 58.2732 64.381C59.3932 65.2852 60.7966 65.7372 62.4834 65.7372ZM83.8837 71V29.5455H91.2111V45.0504H91.5147C91.8926 44.2947 92.4256 43.4918 93.1138 42.6417C93.802 41.7781 94.7331 41.0426 95.9071 40.4354C97.0811 39.8146 98.579 39.5043 100.401 39.5043C102.803 39.5043 104.969 40.1183 106.898 41.3462C108.841 42.5607 110.38 44.3622 111.513 46.7507C112.66 49.1257 113.234 52.0405 113.234 55.495C113.234 58.9091 112.674 61.8104 111.554 64.1989C110.434 66.5874 108.909 68.4091 106.979 69.6641C105.05 70.919 102.863 71.5465 100.421 71.5465C98.6397 71.5465 97.1621 71.2496 95.9881 70.6559C94.8141 70.0621 93.8695 69.3469 93.1543 68.5103C92.4526 67.6602 91.9061 66.8572 91.5147 66.1016H91.0897V71H83.8837ZM91.0694 55.4545C91.0694 57.4652 91.3528 59.2262 91.9196 60.7376C92.4998 62.2489 93.3297 63.4297 94.4093 64.2798C95.5023 65.1165 96.8248 65.5348 98.3766 65.5348C99.9959 65.5348 101.352 65.103 102.445 64.2393C103.538 63.3622 104.361 62.168 104.915 60.6566C105.481 59.1317 105.765 57.3977 105.765 55.4545C105.765 53.5249 105.488 51.8111 104.935 50.3132C104.382 48.8153 103.558 47.6413 102.465 46.7912C101.372 45.941 100.009 45.516 98.3766 45.516C96.8113 45.516 95.4821 45.9276 94.389 46.7507C93.296 47.5739 92.4661 48.7276 91.8993 50.212C91.3461 51.6964 91.0694 53.4439 91.0694 55.4545Z" fill="#A00707"/>
<path d="M133.926 71V29.5455H141.435V47.0948H160.644V29.5455H168.174V71H160.644V53.3899H141.435V71H133.926ZM195.834 57.924V39.9091H203.162V71H196.057V65.4741H195.733C195.031 67.2148 193.878 68.6385 192.272 69.745C190.679 70.8516 188.716 71.4048 186.381 71.4048C184.344 71.4048 182.542 70.9528 180.977 70.0487C179.425 69.131 178.211 67.8018 177.334 66.0611C176.456 64.3068 176.018 62.1882 176.018 59.7053V39.9091H183.345V58.5717C183.345 60.5419 183.885 62.1072 184.965 63.2678C186.044 64.4283 187.461 65.0085 189.215 65.0085C190.295 65.0085 191.341 64.7454 192.353 64.2191C193.365 63.6928 194.195 62.9102 194.842 61.8711C195.504 60.8185 195.834 59.5028 195.834 57.924ZM211.02 71V29.5455H218.348V45.0504H218.651C219.029 44.2947 219.562 43.4918 220.251 42.6417C220.939 41.7781 221.87 41.0426 223.044 40.4354C224.218 39.8146 225.716 39.5043 227.537 39.5043C229.939 39.5043 232.105 40.1183 234.035 41.3462C235.978 42.5607 237.517 44.3622 238.65 46.7507C239.797 49.1257 240.371 52.0405 240.371 55.495C240.371 58.9091 239.811 61.8104 238.691 64.1989C237.57 66.5874 236.046 68.4091 234.116 69.6641C232.186 70.919 230 71.5465 227.558 71.5465C225.776 71.5465 224.299 71.2496 223.125 70.6559C221.951 70.0621 221.006 69.3469 220.291 68.5103C219.589 67.6602 219.043 66.8572 218.651 66.1016H218.226V71H211.02ZM218.206 55.4545C218.206 57.4652 218.49 59.2262 219.056 60.7376C219.637 62.2489 220.466 63.4297 221.546 64.2798C222.639 65.1165 223.961 65.5348 225.513 65.5348C227.133 65.5348 228.489 65.103 229.582 64.2393C230.675 63.3622 231.498 62.168 232.051 60.6566C232.618 59.1317 232.901 57.3977 232.901 55.4545C232.901 53.5249 232.625 51.8111 232.072 50.3132C231.518 48.8153 230.695 47.6413 229.602 46.7912C228.509 45.941 227.146 45.516 225.513 45.516C223.948 45.516 222.619 45.9276 221.526 46.7507C220.433 47.5739 219.603 48.7276 219.036 50.212C218.483 51.6964 218.206 53.4439 218.206 55.4545Z" fill="white"/>
<path d="M33.6089 29.5455V28.5455H32.6089V29.5455H33.6089ZM41.0578 29.5455H42.0578V28.5455H41.0578V29.5455ZM41.0578 58.6932L42.0578 58.6982V58.6932H41.0578ZM39.3575 65.5955L40.2209 66.1002L40.2224 66.0975L39.3575 65.5955ZM34.6615 70.0284L35.1183 70.918L35.1206 70.9168L34.6615 70.0284ZM21.1199 70.2713L20.7061 71.1817L20.7138 71.1851L21.1199 70.2713ZM16.5251 66.3849L17.3592 65.8333L17.3592 65.8333L16.5251 66.3849ZM14.8248 59.9886V58.9886H13.8248V59.9886H14.8248ZM22.2939 59.9886L23.2939 59.9766L23.282 58.9886H22.2939V59.9886ZM23.0226 62.8832L22.1588 63.3871L22.1651 63.3977L23.0226 62.8832ZM25.0265 64.7454L25.4794 63.8538L25.4794 63.8538L25.0265 64.7454ZM31.018 64.6442L31.5305 65.5029L31.5406 65.4968L31.018 64.6442ZM32.9207 62.3771L32.0074 61.9698L32.0029 61.9802L32.9207 62.3771ZM33.6089 58.6932L34.6089 58.7024V58.6932H33.6089ZM33.6089 30.5455H41.0578V28.5455H33.6089V30.5455ZM40.0578 29.5455V58.6932H42.0578V29.5455H40.0578ZM40.0578 58.6881C40.045 61.2199 39.5092 63.3422 38.4926 65.0935L40.2224 66.0975C41.4459 63.9895 42.0436 61.5102 42.0578 58.6982L40.0578 58.6881ZM38.4942 65.0909C37.4718 66.8401 36.0482 68.1862 34.2024 69.14L35.1206 70.9168C37.2961 69.7925 39.0032 68.1834 40.2208 66.1002L38.4942 65.0909ZM34.2047 69.1388C32.3727 70.0796 30.2068 70.5668 27.6782 70.5668V72.5668C30.4663 72.5668 32.956 72.0283 35.1183 70.918L34.2047 69.1388ZM27.6782 70.5668C25.3693 70.5668 23.3244 70.1568 21.5261 69.3575L20.7138 71.1851C22.8018 72.1131 25.1291 72.5668 27.6782 72.5668V70.5668ZM21.5337 69.3609C19.7694 68.5589 18.3857 67.3853 17.3592 65.8333L15.6911 66.9366C16.9316 68.8122 18.6111 70.2294 20.7061 71.1817L21.5337 69.3609ZM17.3592 65.8333C16.3574 64.3187 15.8248 62.3904 15.8248 59.9886H13.8248C13.8248 62.6878 14.4258 65.0236 15.6911 66.9366L17.3592 65.8333ZM14.8248 60.9886H22.2939V58.9886H14.8248V60.9886ZM21.294 60.0007C21.3092 61.2599 21.5838 62.4013 22.1589 63.387L23.8864 62.3793C23.5168 61.7457 23.3057 60.9574 23.2939 59.9766L21.294 60.0007ZM22.1651 63.3977C22.7487 64.3702 23.5576 65.1209 24.5737 65.637L25.4794 63.8538C24.7952 63.5063 24.2682 63.0154 23.8801 62.3687L22.1651 63.3977ZM24.5737 65.637C25.5851 66.1507 26.7229 66.3931 27.9616 66.3931V64.3931C26.9871 64.3931 26.1683 64.2037 25.4794 63.8538L24.5737 65.637ZM27.9616 66.3931C29.3012 66.3931 30.5066 66.1139 31.5305 65.5029L30.5056 63.7855C29.8562 64.173 29.0239 64.3931 27.9616 64.3931V66.3931ZM31.5406 65.4968C32.5717 64.8648 33.3343 63.9401 33.8386 62.774L32.0029 61.9802C31.6435 62.8113 31.1376 63.398 30.4955 63.7916L31.5406 65.4968ZM33.834 62.7844C34.3505 61.6262 34.5945 60.2537 34.6089 58.7024L32.609 58.6839C32.5963 60.0474 32.3816 61.1309 32.0074 61.9698L33.834 62.7844ZM34.6089 58.6932V29.5455H32.6089V58.6932H34.6089ZM54.5487 69.6033L54.0342 70.4608L54.0342 70.4608L54.5487 69.6033ZM49.3669 63.9964L48.4745 64.4477L48.4765 64.4516L49.3669 63.9964ZM49.3669 47.1353L48.4755 46.6821L48.4735 46.6861L49.3669 47.1353ZM54.5487 41.5082L55.0632 42.3657L55.0632 42.3657L54.5487 41.5082ZM70.3371 41.5082L69.8226 42.3657L69.8226 42.3657L70.3371 41.5082ZM75.4987 47.1353L74.6052 47.5845L74.6072 47.5885L75.4987 47.1353ZM75.4987 63.9964L74.6083 63.5412L74.6063 63.5452L75.4987 63.9964ZM70.3371 69.6033L69.8226 68.7458L69.8226 68.7458L70.3371 69.6033ZM66.6127 64.381L67.2454 65.1554L67.251 65.1508L66.6127 64.381ZM69.0821 60.6971L68.1411 60.3587L68.1385 60.366L69.0821 60.6971ZM69.0821 50.3942L68.1376 50.7227L68.1411 50.7326L69.0821 50.3942ZM66.6127 46.69L67.251 45.9202L67.251 45.9202L66.6127 46.69ZM58.2732 46.69L57.6394 45.9164L57.6348 45.9202L58.2732 46.69ZM55.7835 50.3942L54.8415 50.0584L54.8399 50.0631L55.7835 50.3942ZM55.7835 60.6971L54.8398 61.0282L54.8425 61.0355L55.7835 60.6971ZM58.2732 64.381L57.6348 65.1509L57.6451 65.1592L58.2732 64.381ZM62.4429 70.6072C59.5569 70.6072 57.1097 69.9737 55.0632 68.7458L54.0342 70.4608C56.4409 71.9048 59.2565 72.6072 62.4429 72.6072V70.6072ZM55.0632 68.7458C53.0036 67.5101 51.4036 65.7834 50.2573 63.5412L48.4765 64.4516C49.7862 67.0134 51.6408 69.0247 54.0342 70.4608L55.0632 68.7458ZM50.2593 63.5452C49.128 61.3077 48.5452 58.6609 48.5452 55.576H46.5452C46.5452 58.9143 47.1769 61.8812 48.4745 64.4477L50.2593 63.5452ZM48.5452 55.576C48.5452 52.4912 49.1279 49.8367 50.2603 47.5845L48.4735 46.6861C47.1769 49.2648 46.5452 52.2375 46.5452 55.576H48.5452ZM50.2583 47.5885C51.4051 45.3328 53.005 43.6006 55.0632 42.3657L54.0342 40.6507C51.6393 42.0876 49.7847 44.1068 48.4755 46.6821L50.2583 47.5885ZM55.0632 42.3657C57.1097 41.1378 59.5569 40.5043 62.4429 40.5043V38.5043C59.2565 38.5043 56.4409 39.2067 54.0342 40.6507L55.0632 42.3657ZM62.4429 40.5043C65.329 40.5043 67.7761 41.1378 69.8226 42.3657L70.8516 40.6507C68.445 39.2067 65.6293 38.5043 62.4429 38.5043V40.5043ZM69.8226 42.3657C71.8798 43.6 73.4722 45.3309 74.6052 47.5845L76.3921 46.6861C75.0962 44.1087 73.2475 42.0882 70.8516 40.6507L69.8226 42.3657ZM74.6072 47.5885C75.7518 49.8398 76.3406 52.4928 76.3406 55.576H78.3406C78.3406 52.2359 77.7015 49.2618 76.3901 46.6821L74.6072 47.5885ZM76.3406 55.576C76.3406 58.6593 75.7517 61.3046 74.6083 63.5412L76.3891 64.4516C77.7016 61.8843 78.3406 58.9159 78.3406 55.576H76.3406ZM74.6063 63.5452C73.4736 65.7853 71.8813 67.5106 69.8226 68.7458L70.8516 70.4608C73.246 69.0242 75.0947 67.0115 76.3911 64.4477L74.6063 63.5452ZM69.8226 68.7458C67.7761 69.9737 65.329 70.6072 62.4429 70.6072V72.6072C65.6293 72.6072 68.445 71.9048 70.8516 70.4608L69.8226 68.7458ZM62.4834 66.7372C64.3234 66.7372 65.9336 66.2272 67.2454 65.1554L65.9799 63.6067C65.0786 64.3431 63.936 64.7372 62.4834 64.7372V66.7372ZM67.251 65.1508C68.5152 64.1025 69.4341 62.7143 70.0257 61.0282L68.1385 60.366C67.6506 61.7566 66.9232 62.8244 65.9743 63.6113L67.251 65.1508ZM70.0231 61.0355C70.621 59.3732 70.912 57.5427 70.912 55.5558H68.912C68.912 57.3472 68.6498 58.9443 68.1411 60.3587L70.0231 61.0355ZM70.912 55.5558C70.912 53.5562 70.6212 51.7188 70.0231 50.0557L68.1411 50.7326C68.6495 52.1462 68.912 53.7499 68.912 55.5558H70.912ZM70.0266 50.0657C69.4357 48.3667 68.5171 46.9701 67.251 45.9202L65.9743 47.4597C66.9213 48.2451 67.649 49.318 68.1376 50.7227L70.0266 50.0657ZM67.251 45.9202C65.9393 44.8325 64.327 44.3136 62.4834 44.3136V46.3136C63.9324 46.3136 65.073 46.7123 65.9743 47.4597L67.251 45.9202ZM62.4834 44.3136C60.6055 44.3136 58.9669 44.8289 57.6394 45.9164L58.9069 47.4635C59.8195 46.7158 60.9877 46.3136 62.4834 46.3136V44.3136ZM57.6348 45.9202C56.3707 46.9685 55.4462 48.3624 54.8415 50.0584L56.7254 50.73C57.2273 49.3223 57.9625 48.2467 58.9115 47.4597L57.6348 45.9202ZM54.8399 50.0631C54.2571 51.7239 53.9738 53.5587 53.9738 55.5558H55.9738C55.9738 53.7474 56.2303 52.1411 56.7271 50.7253L54.8399 50.0631ZM53.9738 55.5558C53.9738 57.5401 54.2574 59.368 54.8399 61.0282L56.7271 60.366C56.23 58.9494 55.9738 57.3498 55.9738 55.5558H53.9738ZM54.8425 61.0355C55.4478 62.7186 56.3726 64.1041 57.6348 65.1508L58.9115 63.6113C57.9607 62.8228 57.2257 61.7523 56.7245 60.3587L54.8425 61.0355ZM57.6451 65.1592C58.9725 66.2307 60.6091 66.7372 62.4834 66.7372V64.7372C60.9841 64.7372 59.8139 64.3396 58.9013 63.6029L57.6451 65.1592ZM83.8837 71H82.8837V72H83.8837V71ZM83.8837 29.5455V28.5455H82.8837V29.5455H83.8837ZM91.2111 29.5455H92.2111V28.5455H91.2111V29.5455ZM91.2111 45.0504H90.2111V46.0504H91.2111V45.0504ZM91.5147 45.0504V46.0504H92.1328L92.4092 45.4976L91.5147 45.0504ZM93.1138 42.6417L93.8911 43.2709L93.8959 43.2649L93.1138 42.6417ZM95.9071 40.4354L96.3666 41.3236L96.3746 41.3194L95.9071 40.4354ZM106.898 41.3462L106.361 42.1899L106.368 42.1942L106.898 41.3462ZM111.513 46.7507L110.61 47.1795L110.613 47.1856L111.513 46.7507ZM111.554 64.1989L110.648 63.7743L110.648 63.7743L111.554 64.1989ZM106.979 69.6641L107.524 70.5024L107.524 70.5024L106.979 69.6641ZM95.9881 70.6559L95.5368 71.5483L95.5368 71.5483L95.9881 70.6559ZM93.1543 68.5103L92.3831 69.1469L92.3886 69.1535L92.3942 69.1601L93.1543 68.5103ZM91.5147 66.1016L92.4027 65.6417L92.123 65.1016H91.5147V66.1016ZM91.0897 66.1016V65.1016H90.0897V66.1016H91.0897ZM91.0897 71V72H92.0897V71H91.0897ZM91.9196 60.7376L90.9832 61.0887L90.986 61.096L91.9196 60.7376ZM94.4093 64.2798L93.7905 65.0655L93.8015 65.0739L94.4093 64.2798ZM102.445 64.2393L103.065 65.024L103.071 65.0193L102.445 64.2393ZM104.915 60.6566L103.977 60.3082L103.976 60.3128L104.915 60.6566ZM104.935 50.3132L105.873 49.9667L105.873 49.9667L104.935 50.3132ZM102.465 46.7912L103.079 46.0018L103.079 46.0018L102.465 46.7912ZM94.389 46.7507L93.7875 45.9519L93.7875 45.9519L94.389 46.7507ZM91.8993 50.212L90.9651 49.8553L90.9623 49.8627L91.8993 50.212ZM84.8837 71V29.5455H82.8837V71H84.8837ZM83.8837 30.5455H91.2111V28.5455H83.8837V30.5455ZM90.2111 29.5455V45.0504H92.2111V29.5455H90.2111ZM91.2111 46.0504H91.5147V44.0504H91.2111V46.0504ZM92.4092 45.4976C92.7468 44.8224 93.2358 44.0803 93.8911 43.2709L92.3366 42.0125C91.6154 42.9034 91.0384 43.7671 90.6203 44.6032L92.4092 45.4976ZM93.8959 43.2649C94.4809 42.5308 95.2933 41.8787 96.3666 41.3236L95.4477 39.5471C94.1729 40.2065 93.1232 41.0253 92.3318 42.0185L93.8959 43.2649ZM96.3746 41.3194C97.361 40.7978 98.6844 40.5043 100.401 40.5043V38.5043C98.4737 38.5043 96.8013 38.8314 95.4397 39.5513L96.3746 41.3194ZM100.401 40.5043C102.623 40.5043 104.6 41.0693 106.361 42.1899L107.435 40.5026C105.337 39.1672 102.983 38.5043 100.401 38.5043V40.5043ZM106.368 42.1942C108.126 43.2927 109.545 44.9364 110.61 47.1795L112.417 46.322C111.214 43.7881 109.557 41.8288 107.428 40.4982L106.368 42.1942ZM110.613 47.1856C111.677 49.3897 112.234 52.1463 112.234 55.495H114.234C114.234 51.9346 113.643 48.8617 112.414 46.3158L110.613 47.1856ZM112.234 55.495C112.234 58.8039 111.691 61.5517 110.648 63.7743L112.459 64.6234C113.657 62.069 114.234 59.0143 114.234 55.495H112.234ZM110.648 63.7743C109.596 66.0192 108.186 67.6866 106.434 68.8258L107.524 70.5024C109.632 69.1316 111.272 67.1555 112.459 64.6234L110.648 63.7743ZM106.434 68.8258C104.677 69.9686 102.682 70.5465 100.421 70.5465V72.5465C103.045 72.5465 105.422 71.8694 107.524 70.5024L106.434 68.8258ZM100.421 70.5465C98.7437 70.5465 97.433 70.266 96.4394 69.7635L95.5368 71.5483C96.8913 72.2333 98.5358 72.5465 100.421 72.5465V70.5465ZM96.4394 69.7635C95.3608 69.218 94.5287 68.5791 93.9144 67.8605L92.3942 69.1601C93.2103 70.1148 94.2674 70.9063 95.5368 71.5483L96.4394 69.7635ZM93.9255 67.8737C93.2564 67.0631 92.7536 66.3193 92.4027 65.6417L90.6267 66.5614C91.0585 67.3952 91.6487 68.2572 92.3831 69.1469L93.9255 67.8737ZM91.5147 65.1016H91.0897V67.1016H91.5147V65.1016ZM90.0897 66.1016V71H92.0897V66.1016H90.0897ZM91.0897 70H83.8837V72H91.0897V70ZM90.0694 55.4545C90.0694 57.5568 90.3655 59.4413 90.9832 61.0887L92.8559 60.3864C92.3402 59.0111 92.0694 57.3736 92.0694 55.4545H90.0694ZM90.986 61.096C91.6192 62.7453 92.5461 64.0854 93.7906 65.0655L95.028 63.4942C94.1134 62.774 93.3804 61.7526 92.8531 60.3791L90.986 61.096ZM93.8015 65.0739C95.091 66.0609 96.6344 66.5348 98.3766 66.5348V64.5348C97.0151 64.5348 95.9136 64.172 95.0171 63.4857L93.8015 65.0739ZM98.3766 66.5348C100.183 66.5348 101.768 66.0491 103.065 65.024L101.825 63.4547C100.936 64.1569 99.8091 64.5348 98.3766 64.5348V66.5348ZM103.071 65.0193C104.326 64.0119 105.247 62.6571 105.854 61.0004L103.976 60.3128C103.475 61.6789 102.75 62.7125 101.819 63.4594L103.071 65.0193ZM105.852 61.005C106.467 59.3493 106.765 57.4941 106.765 55.4545H104.765C104.765 57.3013 104.495 58.9142 103.977 60.3082L105.852 61.005ZM106.765 55.4545C106.765 53.4305 106.475 51.5959 105.873 49.9667L103.997 50.6597C104.502 52.0262 104.765 53.6192 104.765 55.4545H106.765ZM105.873 49.9667C105.265 48.3212 104.341 46.9831 103.079 46.0018L101.851 47.5805C102.776 48.2995 103.498 49.3095 103.997 50.6597L105.873 49.9667ZM103.079 46.0018C101.781 44.9918 100.19 44.516 98.3766 44.516V46.516C99.8284 46.516 100.964 46.8903 101.851 47.5805L103.079 46.0018ZM98.3766 44.516C96.6268 44.516 95.0782 44.9798 93.7875 45.9519L94.9906 47.5495C95.8859 46.8753 96.9957 46.516 98.3766 46.516V44.516ZM93.7875 45.9519C92.5213 46.9055 91.5879 48.2241 90.9651 49.8553L92.8335 50.5687C93.3442 49.2312 94.0707 48.2423 94.9906 47.5495L93.7875 45.9519ZM90.9623 49.8627C90.3579 51.4844 90.0694 53.3553 90.0694 55.4545H92.0694C92.0694 53.5324 92.3343 51.9084 92.8364 50.5613L90.9623 49.8627ZM133.926 71H132.926V72H133.926V71ZM133.926 29.5455V28.5455H132.926V29.5455H133.926ZM141.435 29.5455H142.435V28.5455H141.435V29.5455ZM141.435 47.0948H140.435V48.0948H141.435V47.0948ZM160.644 47.0948V48.0948H161.644V47.0948H160.644ZM160.644 29.5455V28.5455H159.644V29.5455H160.644ZM168.174 29.5455H169.174V28.5455H168.174V29.5455ZM168.174 71V72H169.174V71H168.174ZM160.644 71H159.644V72H160.644V71ZM160.644 53.3899H161.644V52.3899H160.644V53.3899ZM141.435 53.3899V52.3899H140.435V53.3899H141.435ZM141.435 71V72H142.435V71H141.435ZM134.926 71V29.5455H132.926V71H134.926ZM133.926 30.5455H141.435V28.5455H133.926V30.5455ZM140.435 29.5455V47.0948H142.435V29.5455H140.435ZM141.435 48.0948H160.644V46.0948H141.435V48.0948ZM161.644 47.0948V29.5455H159.644V47.0948H161.644ZM160.644 30.5455H168.174V28.5455H160.644V30.5455ZM167.174 29.5455V71H169.174V29.5455H167.174ZM168.174 70H160.644V72H168.174V70ZM161.644 71V53.3899H159.644V71H161.644ZM160.644 52.3899H141.435V54.3899H160.644V52.3899ZM140.435 53.3899V71H142.435V53.3899H140.435ZM141.435 70H133.926V72H141.435V70ZM195.834 39.9091V38.9091H194.834V39.9091H195.834ZM203.162 39.9091H204.162V38.9091H203.162V39.9091ZM203.162 71V72H204.162V71H203.162ZM196.057 71H195.057V72H196.057V71ZM196.057 65.4741H197.057V64.4741H196.057V65.4741ZM195.733 65.4741V64.4741H195.058L194.806 65.1002L195.733 65.4741ZM192.272 69.745L191.704 68.9216L191.701 68.9238L192.272 69.745ZM180.977 70.0487L180.468 70.9095L180.477 70.9146L180.977 70.0487ZM177.334 66.0611L176.439 66.5083L176.441 66.5111L177.334 66.0611ZM176.018 39.9091V38.9091H175.018V39.9091H176.018ZM183.345 39.9091H184.345V38.9091H183.345V39.9091ZM184.965 63.2678L184.232 63.9489L184.232 63.9489L184.965 63.2678ZM192.353 64.2191L191.891 63.3319L191.891 63.3319L192.353 64.2191ZM194.842 61.8711L193.996 61.3391L193.994 61.3421L194.842 61.8711ZM196.834 57.924V39.9091H194.834V57.924H196.834ZM195.834 40.9091H203.162V38.9091H195.834V40.9091ZM202.162 39.9091V71H204.162V39.9091H202.162ZM203.162 70H196.057V72H203.162V70ZM197.057 71V65.4741H195.057V71H197.057ZM196.057 64.4741H195.733V66.4741H196.057V64.4741ZM194.806 65.1002C194.18 66.6517 193.155 67.9218 191.704 68.9216L192.839 70.5685C194.6 69.3552 195.883 67.778 196.661 65.8479L194.806 65.1002ZM191.701 68.9238C190.308 69.8919 188.554 70.4048 186.381 70.4048V72.4048C188.878 72.4048 191.051 71.8112 192.842 70.5662L191.701 68.9238ZM186.381 70.4048C184.497 70.4048 182.872 69.9883 181.477 69.1827L180.477 70.9146C182.213 71.9173 184.191 72.4048 186.381 72.4048V70.4048ZM181.486 69.1879C180.112 68.3756 179.025 67.1955 178.227 65.6111L176.441 66.5111C177.396 68.4082 178.738 69.8865 180.468 70.9094L181.486 69.1879ZM178.228 65.6139C177.436 64.0304 177.018 62.0731 177.018 59.7053H175.018C175.018 62.3033 175.477 64.5832 176.439 66.5083L178.228 65.6139ZM177.018 59.7053V39.9091H175.018V59.7053H177.018ZM176.018 40.9091H183.345V38.9091H176.018V40.9091ZM182.345 39.9091V58.5717H184.345V39.9091H182.345ZM182.345 58.5717C182.345 60.7303 182.941 62.5611 184.232 63.9489L185.697 62.5867C184.829 61.6534 184.345 60.3535 184.345 58.5717H182.345ZM184.232 63.9489C185.522 65.3356 187.216 66.0085 189.215 66.0085V64.0085C187.706 64.0085 186.566 63.5209 185.697 62.5867L184.232 63.9489ZM189.215 66.0085C190.465 66.0085 191.668 65.7024 192.814 65.1063L191.891 63.3319C191.013 63.7884 190.125 64.0085 189.215 64.0085V66.0085ZM192.814 65.1063C193.997 64.4914 194.956 63.5795 195.691 62.4001L193.994 61.3421C193.434 62.2408 192.733 62.8943 191.891 63.3319L192.814 65.1063ZM195.689 62.403C196.474 61.1533 196.834 59.6407 196.834 57.924H194.834C194.834 59.365 194.533 60.4838 193.996 61.3391L195.689 62.403ZM211.02 71H210.02V72H211.02V71ZM211.02 29.5455V28.5455H210.02V29.5455H211.02ZM218.348 29.5455H219.348V28.5455H218.348V29.5455ZM218.348 45.0504H217.348V46.0504H218.348V45.0504ZM218.651 45.0504V46.0504H219.269L219.546 45.4976L218.651 45.0504ZM220.251 42.6417L221.028 43.2709L221.033 43.2649L220.251 42.6417ZM223.044 40.4354L223.503 41.3236L223.511 41.3194L223.044 40.4354ZM234.035 41.3462L233.498 42.1899L233.505 42.1942L234.035 41.3462ZM238.65 46.7507L237.747 47.1795L237.75 47.1856L238.65 46.7507ZM238.691 64.1989L237.785 63.7743L237.785 63.7743L238.691 64.1989ZM234.116 69.6641L234.661 70.5024L234.661 70.5024L234.116 69.6641ZM223.125 70.6559L222.674 71.5483L222.674 71.5483L223.125 70.6559ZM220.291 68.5103L219.52 69.1469L219.525 69.1535L219.531 69.1601L220.291 68.5103ZM218.651 66.1016L219.539 65.6417L219.26 65.1016H218.651V66.1016ZM218.226 66.1016V65.1016H217.226V66.1016H218.226ZM218.226 71V72H219.226V71H218.226ZM219.056 60.7376L218.12 61.0887L218.123 61.096L219.056 60.7376ZM221.546 64.2798L220.927 65.0655L220.938 65.0739L221.546 64.2798ZM229.582 64.2393L230.202 65.024L230.208 65.0193L229.582 64.2393ZM232.051 60.6566L231.114 60.3082L231.112 60.3128L232.051 60.6566ZM232.072 50.3132L233.01 49.9667L233.01 49.9667L232.072 50.3132ZM229.602 46.7912L230.216 46.0018L230.216 46.0018L229.602 46.7912ZM221.526 46.7507L220.924 45.9519L220.924 45.9519L221.526 46.7507ZM219.036 50.212L218.102 49.8553L218.099 49.8627L219.036 50.212ZM212.02 71V29.5455H210.02V71H212.02ZM211.02 30.5455H218.348V28.5455H211.02V30.5455ZM217.348 29.5455V45.0504H219.348V29.5455H217.348ZM218.348 46.0504H218.651V44.0504H218.348V46.0504ZM219.546 45.4976C219.884 44.8224 220.373 44.0803 221.028 43.2709L219.473 42.0125C218.752 42.9034 218.175 43.7671 217.757 44.6032L219.546 45.4976ZM221.033 43.2649C221.618 42.5308 222.43 41.8787 223.503 41.3236L222.584 39.5471C221.31 40.2065 220.26 41.0253 219.468 42.0185L221.033 43.2649ZM223.511 41.3194C224.498 40.7978 225.821 40.5043 227.537 40.5043V38.5043C225.61 38.5043 223.938 38.8314 222.576 39.5513L223.511 41.3194ZM227.537 40.5043C229.759 40.5043 231.737 41.0693 233.498 42.1899L234.572 40.5026C232.473 39.1672 230.12 38.5043 227.537 38.5043V40.5043ZM233.505 42.1942C235.262 43.2927 236.682 44.9364 237.747 47.1795L239.553 46.322C238.351 43.7881 236.694 41.8288 234.565 40.4982L233.505 42.1942ZM237.75 47.1856C238.814 49.3897 239.371 52.1463 239.371 55.495H241.371C241.371 51.9346 240.78 48.8617 239.551 46.3158L237.75 47.1856ZM239.371 55.495C239.371 58.8039 238.827 61.5517 237.785 63.7743L239.596 64.6234C240.794 62.069 241.371 59.0143 241.371 55.495H239.371ZM237.785 63.7743C236.732 66.0192 235.322 67.6866 233.571 68.8258L234.661 70.5024C236.769 69.1316 238.409 67.1555 239.596 64.6234L237.785 63.7743ZM233.571 68.8258C231.813 69.9686 229.819 70.5465 227.558 70.5465V72.5465C230.181 72.5465 232.559 71.8694 234.661 70.5024L233.571 68.8258ZM227.558 70.5465C225.88 70.5465 224.57 70.266 223.576 69.7635L222.674 71.5483C224.028 72.2333 225.672 72.5465 227.558 72.5465V70.5465ZM223.576 69.7635C222.498 69.218 221.665 68.5791 221.051 67.8605L219.531 69.1601C220.347 70.1148 221.404 70.9063 222.674 71.5483L223.576 69.7635ZM221.062 67.8737C220.393 67.0631 219.89 66.3193 219.539 65.6417L217.763 66.5614C218.195 67.3952 218.785 68.2572 219.52 69.1469L221.062 67.8737ZM218.651 65.1016H218.226V67.1016H218.651V65.1016ZM217.226 66.1016V71H219.226V66.1016H217.226ZM218.226 70H211.02V72H218.226V70ZM217.206 55.4545C217.206 57.5568 217.502 59.4413 218.12 61.0887L219.993 60.3864C219.477 59.0111 219.206 57.3736 219.206 55.4545H217.206ZM218.123 61.096C218.756 62.7453 219.683 64.0854 220.927 65.0655L222.165 63.4942C221.25 62.774 220.517 61.7526 219.99 60.3791L218.123 61.096ZM220.938 65.0739C222.228 66.0609 223.771 66.5348 225.513 66.5348V64.5348C224.152 64.5348 223.05 64.172 222.154 63.4857L220.938 65.0739ZM225.513 66.5348C227.319 66.5348 228.904 66.0491 230.202 65.024L228.962 63.4547C228.073 64.1569 226.946 64.5348 225.513 64.5348V66.5348ZM230.208 65.0193C231.463 64.0119 232.384 62.6571 232.99 61.0004L231.112 60.3128C230.612 61.6789 229.887 62.7125 228.956 63.4594L230.208 65.0193ZM232.989 61.005C233.604 59.3493 233.901 57.4941 233.901 55.4545H231.901C231.901 57.3013 231.632 58.9142 231.114 60.3082L232.989 61.005ZM233.901 55.4545C233.901 53.4305 233.611 51.5959 233.01 49.9667L231.134 50.6597C231.638 52.0262 231.901 53.6192 231.901 55.4545H233.901ZM233.01 49.9667C232.402 48.3212 231.478 46.9831 230.216 46.0018L228.988 47.5805C229.913 48.2995 230.635 49.3095 231.134 50.6597L233.01 49.9667ZM230.216 46.0018C228.917 44.9918 227.327 44.516 225.513 44.516V46.516C226.965 46.516 228.101 46.8903 228.988 47.5805L230.216 46.0018ZM225.513 44.516C223.764 44.516 222.215 44.9798 220.924 45.9519L222.127 47.5495C223.023 46.8753 224.132 46.516 225.513 46.516V44.516ZM220.924 45.9519C219.658 46.9055 218.725 48.2241 218.102 49.8553L219.97 50.5687C220.481 49.2312 221.207 48.2423 222.127 47.5495L220.924 45.9519ZM218.099 49.8627C217.495 51.4844 217.206 53.3553 217.206 55.4545H219.206C219.206 53.5324 219.471 51.9084 219.973 50.5613L218.099 49.8627Z" fill="black"/>
</g>
<defs>
<filter id="filter0_b_0_1" x="-4" y="-4" width="38" height="14" filterUnits="userSpaceOnUse" color-interpolation-filters="sRGB">
<feFlood flood-opacity="0" result="BackgroundImageFix"/>
<feGaussianBlur in="BackgroundImageFix" stdDeviation="2"/>
<feComposite in2="SourceAlpha" operator="in" result="effect1_backgroundBlur_0_1"/>
<feBlend mode="normal" in="SourceGraphic" in2="effect1_backgroundBlur_0_1" result="shape"/>
</filter>
<filter id="filter1_b_0_1" x="-4" y="90" width="38" height="14" filterUnits="userSpaceOnUse" color-interpolation-filters="sRGB">
<feFlood flood-opacity="0" result="BackgroundImageFix"/>
<feGaussianBlur in="BackgroundImageFix" stdDeviation="2"/>
<feComposite in2="SourceAlpha" operator="in" result="effect1_backgroundBlur_0_1"/>
<feBlend mode="normal" in="SourceGraphic" in2="effect1_backgroundBlur_0_1" result="shape"/>
</filter>
<filter id="filter2_b_0_1" x="-4" y="-4" width="14" height="108" filterUnits="userSpaceOnUse" color-interpolation-filters="sRGB">
<feFlood flood-opacity="0" result="BackgroundImageFix"/>
<feGaussianBlur in="BackgroundImageFix" stdDeviation="2"/>
<feComposite in2="SourceAlpha" operator="in" result="effect1_backgroundBlur_0_1"/>
<feBlend mode="normal" in="SourceGraphic" in2="effect1_backgroundBlur_0_1" result="shape"/>
</filter>
<filter id="filter3_b_0_1" x="221.957" y="90" width="38.0427" height="13.9998" filterUnits="userSpaceOnUse" color-interpolation-filters="sRGB">
<feFlood flood-opacity="0" result="BackgroundImageFix"/>
<feGaussianBlur in="BackgroundImageFix" stdDeviation="2"/>
<feComposite in2="SourceAlpha" operator="in" result="effect1_backgroundBlur_0_1"/>
<feBlend mode="normal" in="SourceGraphic" in2="effect1_backgroundBlur_0_1" result="shape"/>
</filter>
<filter id="filter4_b_0_1" x="220.957" y="-4" width="38.5521" height="13.9998" filterUnits="userSpaceOnUse" color-interpolation-filters="sRGB">
<feFlood flood-opacity="0" result="BackgroundImageFix"/>
<feGaussianBlur in="BackgroundImageFix" stdDeviation="2"/>
<feComposite in2="SourceAlpha" operator="in" result="effect1_backgroundBlur_0_1"/>
<feBlend mode="normal" in="SourceGraphic" in2="effect1_backgroundBlur_0_1" result="shape"/>
</filter>
<filter id="filter5_b_0_1" x="246" y="-4" width="13.9999" height="108.041" filterUnits="userSpaceOnUse" color-interpolation-filters="sRGB">
<feFlood flood-opacity="0" result="BackgroundImageFix"/>
<feGaussianBlur in="BackgroundImageFix" stdDeviation="2"/>
<feComposite in2="SourceAlpha" operator="in" result="effect1_backgroundBlur_0_1"/>
<feBlend mode="normal" in="SourceGraphic" in2="effect1_backgroundBlur_0_1" result="shape"/>
</filter>
<filter id="filter6_b_0_1" x="10.8248" y="25.5455" width="233.546" height="50.0618" filterUnits="userSpaceOnUse" color-interpolation-filters="sRGB">
<feFlood flood-opacity="0" result="BackgroundImageFix"/>
<feGaussianBlur in="BackgroundImageFix" stdDeviation="2"/>
<feComposite in2="SourceAlpha" operator="in" result="effect1_backgroundBlur_0_1"/>
<feBlend mode="normal" in="SourceGraphic" in2="effect1_backgroundBlur_0_1" result="shape"/>
</filter>
</defs>
</svg>
